<?xml version="1.0" encoding="UTF-8"?>
<svg id="Layer_1" xmlns="http://www.w3.org/2000/svg" version="1.1" viewBox="0 0 31.88 32">
  <!-- Generator: Adobe Illustrator 30.0.0, SVG Export Plug-In . SVG Version: 2.1.1 Build 123)  -->
  <defs>
    <style>
      .st0 {
        fill: #5fb258;
      }

      .st1 {
        fill: #fff;
      }
    </style>
  </defs>
  <circle class="st1" cx="15.94" cy="16" r="15.46"/>
  <g>
    <path class="st0" d="M24.03,9.03c-.37.17-.72.4-1.05.63-2.39,1.65-4.33,4.04-5.53,6.68-.26.57-.43,1.19-.74,1.74-.25-.1-.37-.39-.54-.54-.56-.52-1.43-.83-2.09-1.22-1.11-.67-1.93-1.6-2.53-2.75-.28-.54-.7-1.25.24-1.33,1.99-.18,3.33,1.09,4.23,2.71.23.42.38.91.6,1.31.03.06,0,.09.12.07.03-1.25-.18-2.48.08-3.73.61-2.96,3.49-4.78,6.22-5.52.84-.23,2.19-.55,3.04-.58.11,0,.27-.03.37.05.09.07.08.19.08.29,0,.43-.11,1.05-.17,1.49-.43,3.66-1.62,7.28-5.36,8.71-.61.23-1.33.36-1.93.61-.63.27-1.02.88-1.54,1.31h-.09s-.07-.11-.07-.11c1.16-3.87,3.58-7.25,6.67-9.81Z"/>
    <path class="st0" d="M3.68,8.06c.47-.08,2.12-.07,2.61,0,1.13.15,1.62,1.03,1.93,2,.85,2.67,1.37,5.64,2.29,8.26.24.67.48.99,1.23,1.05l9.51-.02c.63-.11,1.13-.51,1.39-1.09.24-.52.2-1.36,1-1.38.97-.03.76.88.56,1.49-.46,1.41-1.6,2.38-3.09,2.49-3.08-.17-6.41.23-9.47,0-1.16-.09-2.09-.77-2.48-1.87-.88-2.86-1.46-5.9-2.38-8.74-.09-.26-.2-.66-.52-.72-.65-.12-1.67.06-2.38,0-1.1-.09-1-1.35-.19-1.49Z"/>
    <path class="st0" d="M11.86,21.92c1.03-.14,2.03.18,2.45,1.19,1.05,2.49-2.45,4.24-3.81,2.05-.75-1.2-.09-3.05,1.35-3.24ZM12.17,23.21c-.93.17-.75,1.68.24,1.59s.93-1.81-.24-1.59Z"/>
    <path class="st0" d="M19.72,21.92c3.49-.47,3.31,4.45.25,4.23-2.55-.19-2.5-3.92-.25-4.23ZM19.93,23.21c-.92.19-.63,1.81.43,1.57.96-.22.7-1.8-.43-1.57Z"/>
  </g>
</svg>